<?xml version="1.0" encoding="UTF-8" standalone="no"?>
<svg
   viewBox="0 0 90.000465 90.000465"
   version="1.1"
   xml:space="preserve"
   x="0px"
   y="0px"
   fill-rule="evenodd"
   clip-rule="evenodd"
   stroke-linejoin="round"
   stroke-miterlimit="2"
   id="svg3"
   sodipodi:docname="battle.svg"
   width="90.000465"
   height="90.000465"
   inkscape:version="1.4.2 (ebf0e940d0, 2025-05-08)"
   xmlns:inkscape="http://www.inkscape.org/namespaces/inkscape"
   xmlns:sodipodi="http://sodipodi.sourceforge.net/DTD/sodipodi-0.dtd"
   xmlns="http://www.w3.org/2000/svg"
   xmlns:svg="http://www.w3.org/2000/svg"
   xmlns:serif="http://www.serif.com/"><defs
     id="defs3" /><sodipodi:namedview
     id="namedview3"
     pagecolor="#ffffff"
     bordercolor="#000000"
     borderopacity="0.25"
     inkscape:showpageshadow="2"
     inkscape:pageopacity="0.0"
     inkscape:pagecheckerboard="0"
     inkscape:deskcolor="#d1d1d1"
     inkscape:zoom="6.48"
     inkscape:cx="44.984568"
     inkscape:cy="57.561728"
     inkscape:window-width="1920"
     inkscape:window-height="1012"
     inkscape:window-x="0"
     inkscape:window-y="0"
     inkscape:window-maximized="1"
     inkscape:current-layer="svg3" /><rect
     serif:id="10 - battle"
     x="-4.999784"
     y="-4.999784"
     width="100"
     height="100"
     fill="none"
     id="rect1" /><path
     d="m 33.121216,71.102216 4.08,4.081 c 0.892,0.891 1.393,2.1 1.393,3.361 0,1.261 -0.501,2.47 -1.393,3.361 -0.409,0.41 -0.833,0.833 -1.243,1.243 -0.891,0.892 -2.1,1.393 -3.361,1.393 -1.261,0 -2.47,-0.501 -3.361,-1.393 l -6.912,-6.912 -12.222,12.223 c -2.055,2.055 -5.387,2.055 -7.442,0 l -1.119,-1.119 c -2.055,-2.055 -2.055,-5.387 0,-7.442 l 12.223,-12.222 -7.184,-7.183 c -0.891,-0.892 -1.392,-2.101 -1.392,-3.362 0,-1.26 0.501,-2.469 1.392,-3.361 l 1.243,-1.243 c 0.892,-0.891 2.101,-1.392 3.361,-1.392 1.261,0 2.47,0.501 3.362,1.392 l 4.352,4.352 40.272,-52.601 c 0.167,-0.218 0.414,-0.361 0.686,-0.398 l 28.97,-3.871 c 0.32,-0.043 0.642,0.066 0.87,0.295 0.229,0.228 0.338,0.55 0.295,0.87 l -3.871,28.97 c -0.037,0.272 -0.18,0.519 -0.398,0.686 z m 52.749,-68.607 -60.678,60.678 -4.816,-4.815 40.179,-52.48 z"
     id="path1" /><path
     d="m 64.843216,48.704216 -1.646,1.26 6.427,8.394 -4.816,4.815 -8.18,-8.179 -10.394,7.958 10.645,8.15 -4.08,4.081 c -0.892,0.891 -1.393,2.1 -1.393,3.361 0,1.261 0.501,2.47 1.393,3.361 0.409,0.41 0.833,0.833 1.243,1.243 0.891,0.892 2.1,1.393 3.361,1.393 1.261,0 2.47,-0.501 3.361,-1.393 l 6.912,-6.912 12.222,12.223 c 2.055,2.055 5.387,2.055 7.442,0 l 1.119,-1.119 c 2.055,-2.055 2.055,-5.387 0,-7.442 l -12.223,-12.222 7.184,-7.183 c 0.891,-0.892 1.392,-2.101 1.392,-3.362 0,-1.26 -0.501,-2.469 -1.392,-3.361 l -1.243,-1.243 c -0.892,-0.891 -2.101,-1.392 -3.361,-1.392 -1.261,0 -2.47,0.501 -3.362,1.392 l -4.352,4.352 z m -39.965,-2.103 10.128,-13.229 -30.876,-30.877 25.315,3.383 13.305,17.379 1.305,-1.705 -13.225,-17.274 c -0.167,-0.218 -0.414,-0.361 -0.686,-0.398 l -28.97,-3.871 c -0.32,-0.043 -0.642,0.066 -0.87,0.295 -0.229,0.228 -0.338,0.55 -0.295,0.87 l 3.871,28.97 c 0.037,0.272 0.18,0.519 0.398,0.686 z"
     id="path2" /></svg>
