<?xml version="1.0" encoding="UTF-8" standalone="no"?>
<svg
   data-name="Layer 1"
   viewBox="0 0 64 80"
   x="0px"
   y="0px"
   version="1.1"
   id="svg2"
   sodipodi:docname="copy.svg"
   width="64"
   height="80"
   inkscape:version="1.4.2 (ebf0e940d0, 2025-05-08)"
   xmlns:inkscape="http://www.inkscape.org/namespaces/inkscape"
   xmlns:sodipodi="http://sodipodi.sourceforge.net/DTD/sodipodi-0.dtd"
   xmlns="http://www.w3.org/2000/svg"
   xmlns:svg="http://www.w3.org/2000/svg">
  <defs
     id="defs2" />
  <sodipodi:namedview
     id="namedview2"
     pagecolor="#ffffff"
     bordercolor="#000000"
     borderopacity="0.25"
     inkscape:showpageshadow="2"
     inkscape:pageopacity="0.0"
     inkscape:pagecheckerboard="0"
     inkscape:deskcolor="#d1d1d1"
     inkscape:zoom="6.48"
     inkscape:cx="31.944444"
     inkscape:cy="52.469136"
     inkscape:window-width="1920"
     inkscape:window-height="1012"
     inkscape:window-x="0"
     inkscape:window-y="0"
     inkscape:window-maximized="1"
     inkscape:current-layer="svg2" />
  <path
     d="M 20.87,0 A 8.59,8.59 0 0 0 12.3,8.57 V 12.3 H 8.57 A 8.59,8.59 0 0 0 0,20.88 V 71.43 A 8.58,8.58 0 0 0 8.57,80 h 34.56 a 8.57,8.57 0 0 0 8.57,-8.57 v -3.74 h 3.73 A 8.58,8.58 0 0 0 64,59.12 V 8.57 A 8.59,8.59 0 0 0 55.43,0 Z m 27,71.43 A 4.77,4.77 0 0 1 43.1,76.19 H 8.57 A 4.77,4.77 0 0 1 3.81,71.43 V 20.88 A 4.77,4.77 0 0 1 8.57,16.11 H 35.25 V 23 A 5.72,5.72 0 0 0 41,28.76 h 6.9 z M 39.06,18.81 45.2,25 H 41 A 1.92,1.92 0 0 1 39.06,23 Z M 60.19,8.57 v 50.55 a 4.76,4.76 0 0 1 -4.76,4.76 H 51.7 v -37 0 A 1.9,1.9 0 0 0 51.16,25.53 L 38.5,12.86 a 1.91,1.91 0 0 0 -1.35,-0.54 v 0 h -21 V 8.57 a 4.77,4.77 0 0 1 4.76,-4.76 h 34.52 a 4.77,4.77 0 0 1 4.76,4.76 z"
     id="path1" />
</svg>
