<?xml version="1.0" encoding="UTF-8" standalone="no"?>
<svg
   version="1.1"
   viewBox="-5 -10 95.132523 77.484612"
   id="svg2"
   sodipodi:docname="file.svg"
   width="95.132523"
   height="77.484612"
   inkscape:version="1.4.2 (ebf0e940d0, 2025-05-08)"
   xmlns:inkscape="http://www.inkscape.org/namespaces/inkscape"
   xmlns:sodipodi="http://sodipodi.sourceforge.net/DTD/sodipodi-0.dtd"
   xmlns="http://www.w3.org/2000/svg"
   xmlns:svg="http://www.w3.org/2000/svg">
  <defs
     id="defs2" />
  <sodipodi:namedview
     id="namedview2"
     pagecolor="#ffffff"
     bordercolor="#000000"
     borderopacity="0.25"
     inkscape:showpageshadow="2"
     inkscape:pageopacity="0.0"
     inkscape:pagecheckerboard="0"
     inkscape:deskcolor="#d1d1d1"
     inkscape:zoom="6"
     inkscape:cx="47.416667"
     inkscape:cy="73.166667"
     inkscape:window-width="1920"
     inkscape:window-height="1012"
     inkscape:window-x="0"
     inkscape:window-y="0"
     inkscape:window-maximized="1"
     inkscape:current-layer="svg2" />
  <path
     d="m 29.53893,15.238712 h 44.801 v -7.6328 c 0,-0.77344 -0.31641,-1.4766 -0.82422,-1.9844 -0.50781,-0.50781 -1.2109,-0.82422 -1.9844,-0.82422 h -40.781 v 2.7891 c 0,1.3789 -1.1211,2.5 -2.5,2.5 -1.3789,0 -2.5,-1.1211 -2.5,-2.5 v -9.7734 c 0,-0.77734 -0.3125,-1.4805 -0.81641,-1.9844 l -0.0078,-0.0078 c -0.50391,-0.50391 -1.207,-0.81641 -1.9844,-0.81641 H 2.8167 c -0.77734,0 -1.4805,0.3125 -1.9844,0.81641 l -0.00781,0.0078 c -0.50391,0.50391 -0.81641,1.207 -0.81641,1.9844 v 48.207 l 5.6055,-20.918 c 0.73438,-2.7383 2.4922,-5.2031 4.7305,-6.9688 l 0.17187,-0.12109 c 2.2344,-1.707 4.9531,-2.7617 7.6523,-2.7617 h 11.371 z m -24.16,47.242 h 63.449 c 1.6289,0 3.3242,-0.69141 4.7383,-1.8086 1.4336,-1.1289 2.5469,-2.668 2.9922,-4.3359 l 8.3711,-31.242 c 0.13281,-0.48828 0.19531,-0.96484 0.19531,-1.418 0,-0.84375 -0.23438,-1.582 -0.65234,-2.1406 -0.39844,-0.54297 -1.0039,-0.94531 -1.7617,-1.1484 -0.36328,-0.09766 -0.77344,-0.14844 -1.2266,-0.14844 h -63.332 c -1.5859,0 -3.2227,0.64844 -4.6055,1.6992 l -0.13281,0.11328 c -1.4336,1.1289 -2.5469,2.6641 -2.9922,4.332 l -8.3711,31.242 c -0.12891,0.48828 -0.19531,0.96484 -0.19531,1.418 0,0.84766 0.23438,1.582 0.64844,2.1406 0.39844,0.54297 1.0039,0.94531 1.7617,1.1484 0.32813,0.08594 0.69531,0.13672 1.1016,0.14844 z m 0.125,5.0039 H 5.2969 c -2.8906,-0.04297 -5.4727,-0.97656 -7.3477,-2.7383 C -3.8946,63.019712 -5,60.570512 -5,57.484612 v -59.676 c 0,-2.1367 0.875,-4.0859 2.2891,-5.5039 l 0.00781,-0.0078 c 1.4219,-1.418 3.375,-2.2969 5.5117,-2.2969 h 20.125 c 2.1367,0 4.0859,0.875 5.5039,2.2891 l 0.0078,0.0078 c 1.418,1.4219 2.2969,3.375 2.2969,5.5117 v 1.9844 h 40.781 c 2.1523,0 4.1055,0.87891 5.5195,2.293 1.4141,1.4141 2.293,3.3672 2.293,5.5195 v 7.6328 h 2.1562 c 0.87891,0 1.7227,0.11328 2.5156,0.32422 1.8633,0.49609 3.3945,1.5469 4.4688,2.9805 1.0664,1.4141 1.6562,3.1797 1.6562,5.1289 0,0.86328 -0.12109,1.7734 -0.37109,2.707 l -8.3711,31.242 c -0.73437,2.7383 -2.4922,5.2031 -4.7305,6.9727 -2.2578,1.7773 -5.0469,2.8828 -7.8242,2.8828 h -63.332 z"
     id="path1" />
</svg>
