<?xml version="1.0" encoding="UTF-8" standalone="no"?>
<svg
   viewBox="0 0 44 44"
   version="1.1"
   xml:space="preserve"
   x="0px"
   y="0px"
   clip-rule="evenodd"
   fill-rule="evenodd"
   stroke-linecap="round"
   stroke-linejoin="round"
   stroke-miterlimit="1.5"
   id="svg2"
   sodipodi:docname="plus.svg"
   width="44"
   height="44"
   inkscape:version="1.4.2 (ebf0e940d0, 2025-05-08)"
   xmlns:inkscape="http://www.inkscape.org/namespaces/inkscape"
   xmlns:sodipodi="http://sodipodi.sourceforge.net/DTD/sodipodi-0.dtd"
   xmlns="http://www.w3.org/2000/svg"
   xmlns:svg="http://www.w3.org/2000/svg"><defs
     id="defs2" /><sodipodi:namedview
     id="namedview2"
     pagecolor="#ffffff"
     bordercolor="#000000"
     borderopacity="0.25"
     inkscape:showpageshadow="2"
     inkscape:pageopacity="0.0"
     inkscape:pagecheckerboard="0"
     inkscape:deskcolor="#d1d1d1"
     inkscape:zoom="13.5"
     inkscape:cx="21.851852"
     inkscape:cy="18.740741"
     inkscape:window-width="1920"
     inkscape:window-height="1012"
     inkscape:window-x="0"
     inkscape:window-y="0"
     inkscape:window-maximized="1"
     inkscape:current-layer="svg2" /><g
     transform="translate(-506,-578)"
     display="inline"
     id="g1"><path
       style="color:#000000"
       d="m 527.5,578 c -1.36887,0 -2.5,1.13113 -2.5,2.5 V 597 h -16.5 c -1.36887,0 -2.5,1.13113 -2.5,2.5 v 1 c 0,1.36887 1.13113,2.5 2.5,2.5 H 525 v 16.5 c 0,1.36887 1.13113,2.5 2.5,2.5 h 1 c 1.36887,0 2.5,-1.13113 2.5,-2.5 V 603 h 16.5 c 1.36887,0 2.5,-1.13113 2.5,-2.5 v -1 c 0,-1.36887 -1.13113,-2.5 -2.5,-2.5 H 531 v -16.5 c 0,-1.36887 -1.13113,-2.5 -2.5,-2.5 z"
       fill="#000000"
       id="path1" /></g></svg>
