<?xml version="1.0" encoding="UTF-8" standalone="no"?>
<svg
   viewBox="0 0 15.345841 15.345833"
   version="1.1"
   x="0px"
   y="0px"
   id="svg2"
   width="15.34584"
   height="15.345833"
   xmlns="http://www.w3.org/2000/svg"
   xmlns:svg="http://www.w3.org/2000/svg">
  <defs
     id="defs2" />
  <g
     id="g1"
     transform="translate(-0.79374667,-0.79375017)">
    <path
       style="color:#000000;paint-order:fill markers stroke;stroke:#000000;stroke-width:0.5;stroke-linecap:round;stroke-linejoin:round"
       d="m 7.8297867,0.79375017 c -0.59074,0 -1.07448,0.48370703 -1.07448,1.07445303 v 0.617278 c -0.45532,0.130123 -0.89424,0.311751 -1.30838,0.541419 l -0.43584,-0.435809 c -0.41782,-0.417823 -1.10221,-0.417824 -1.52002,0 l -0.89997,0.899941 c -0.41783,0.417819 -0.41783,1.102199 0,1.520017 l 0.43584,0.435841 c -0.22966,0.414129 -0.4113,0.853068 -0.54142,1.308388 h -0.61728 c -0.59075,0 -1.07449003,0.48374 -1.07449003,1.074486 v 1.273779 c 0,0.590747 0.48374003,1.0744868 1.07449003,1.0744868 h 0.61728 c 0.13012,0.455329 0.31175,0.894251 0.54142,1.308388 l -0.43584,0.435833 c -0.41783,0.417818 -0.41783,1.102232 0,1.520049 l 0.89997,0.899941 c 0.41781,0.417821 1.1022,0.417821 1.52002,0 l 0.43584,-0.435833 c 0.41414,0.229667 0.85306,0.411288 1.30838,0.541411 v 0.617285 c 0,0.590747 0.48374,1.074479 1.07448,1.074479 h 1.27379 c 0.59074,0 1.0744803,-0.483732 1.0744803,-1.074479 v -0.617285 c 0.45533,-0.130123 0.89425,-0.311744 1.30839,-0.541411 l 0.43584,0.435833 c 0.41782,0.417814 1.10219,0.417814 1.52001,0 l 0.89998,-0.899941 c 0.41781,-0.417819 0.41781,-1.10223 0,-1.520049 l -0.43584,-0.435833 c 0.22966,-0.414137 0.41129,-0.853059 0.54142,-1.308388 h 0.61727 c 0.59074,0 1.07446,-0.4837398 1.07446,-1.0744868 v -1.273779 c 0,-0.590746 -0.48372,-1.074486 -1.07446,-1.074486 h -0.61448 c -0.13043,-0.455914 -0.31248,-0.895357 -0.5427,-1.309924 l 0.43433,-0.434305 c 0.41781,-0.41782 0.41781,-1.102197 0,-1.520017 l -0.89998,-0.899941 c -0.41782,-0.417817 -1.10219,-0.417817 -1.52001,0 l -0.4343,0.434298 c -0.41456,-0.230221 -0.85402,-0.412272 -1.30993,-0.542698 v -0.614488 c 0,-0.590746 -0.4837403,-1.07445303 -1.0744803,-1.07445303 z m 0,0.52914903 h 1.27379 c 0.30706,0 0.5453,0.238236 0.5453,0.545304 v 0.817052 a 0.26460932,0.26460932 0 0 0 0.20034,0.256646 c 0.5442403,0.136244 1.0653603,0.352174 1.5464903,0.640754 a 0.26460932,0.26460932 0 0 0 0.3232,-0.03982 l 0.57756,-0.577588 c 0.21704,-0.217038 0.55464,-0.217038 0.77168,0 l 0.89994,0.899974 c 0.21701,0.217036 0.21703,0.554623 0,0.771651 l -0.57755,0.577588 a 0.26460932,0.26460932 0 0 0 -0.0398,0.323166 c 0.28858,0.481129 0.50448,1.002255 0.64073,1.546498 a 0.26460932,0.26460932 0 0 0 0.25665,0.20033 h 0.81704 c 0.30706,0 0.54531,0.238244 0.54531,0.545312 v 1.273779 c 0,0.307069 -0.23825,0.545305 -0.54531,0.545305 h -0.81989 a 0.26460932,0.26460932 0 0 0 -0.25669,0.200429 c -0.13594,0.5436948 -0.35136,1.0643288 -0.63934,1.5451108 a 0.26460932,0.26460932 0 0 0 0.0399,0.323042 l 0.579,0.579008 c 0.21703,0.217034 0.21703,0.554641 0,0.771676 l -0.89994,0.899941 c -0.21704,0.217035 -0.55464,0.217035 -0.77168,0 l -0.579,-0.579 a 0.26460932,0.26460932 0 0 0 -0.32304,-0.03988 c -0.48079,0.28798 -1.00145,0.503426 -1.5451503,0.639367 a 0.26460932,0.26460932 0 0 0 -0.2004,0.256689 v 0.819873 c 0,0.307069 -0.23824,0.545304 -0.5453,0.545304 h -1.27379 c -0.30707,0 -0.5453,-0.238235 -0.5453,-0.545304 v -0.819873 a 0.26460932,0.26460932 0 0 0 -0.20043,-0.256689 c -0.5437,-0.135941 -1.06433,-0.351387 -1.54511,-0.639367 a 0.26460932,0.26460932 0 0 0 -0.32304,0.03988 l -0.57901,0.579 c -0.21703,0.217029 -0.55465,0.217028 -0.77168,0 l -0.89994,-0.899941 c -0.21704,-0.217036 -0.21704,-0.55464 0,-0.771676 l 0.579,-0.579008 a 0.26460932,0.26460932 0 0 0 0.0399,-0.323042 c -0.28798,-0.480782 -0.50339,-1.001416 -0.63933,-1.5451108 a 0.26460932,0.26460932 0 0 0 -0.25676,-0.200431 h -0.8199 c -0.30707,0 -0.54531,-0.238236 -0.54531,-0.545305 v -1.273779 c 0,-0.307068 0.23824,-0.545312 0.54531,-0.545312 h 0.8199 a 0.26460932,0.26460932 0 0 0 0.25669,-0.200388 c 0.13594,-0.543695 0.35135,-1.06437 0.63933,-1.545153 a 0.26460932,0.26460932 0 0 0 -0.0399,-0.323042 l -0.579,-0.578999 c -0.21704,-0.217036 -0.21704,-0.554614 0,-0.771651 l 0.89994,-0.899974 c 0.21703,-0.217032 0.55465,-0.217032 0.77168,0 l 0.57901,0.579008 a 0.26460932,0.26460932 0 0 0 0.32304,0.03991 c 0.48078,-0.28798 1.00141,-0.503426 1.54511,-0.639368 a 0.26460932,0.26460932 0 0 0 0.20043,-0.25668 v -0.819907 c 0,-0.307068 0.23823,-0.545304 0.5453,-0.545304 z m 0.6369,3.380042 c -2.07551,0 -3.76374,1.688196 -3.76374,3.763709 0,2.0755118 1.68823,3.7637418 3.76374,3.7637418 2.0755103,0 3.7637103,-1.68823 3.7637103,-3.7637418 0,-2.075513 -1.6882,-3.763709 -3.7637103,-3.763709 z m 0,0.529149 c 1.7895303,0 3.2345603,1.44503 3.2345603,3.23456 0,1.7895298 -1.44503,3.2345588 -3.2345603,3.2345588 -1.78953,0 -3.23456,-1.445029 -3.23456,-3.2345588 0,-1.78953 1.44503,-3.23456 3.23456,-3.23456 z"
       fill="#000000"
       fill-rule="evenodd"
       stroke-width="0.0160643"
       stroke-linecap="round"
       stroke-linejoin="round"
       id="path1" />
  </g>
  <text
     x="-0.79374665"
     y="31.139584"
     fill="#000000"
     font-size="5px"
     font-weight="bold"
     font-family="'Helvetica Neue', Helvetica, Arial-Unicode, Arial, Sans-serif"
     id="text1">Created by Alzam</text>
  <text
     x="-0.79374665"
     y="36.139584"
     fill="#000000"
     font-size="5px"
     font-weight="bold"
     font-family="'Helvetica Neue', Helvetica, Arial-Unicode, Arial, Sans-serif"
     id="text2">from the Noun Project</text>
</svg>
