<?xml version="1.0" encoding="UTF-8" standalone="no"?>
<svg
   version="1.1"
   viewBox="0 0 100 100"
   id="svg4"
   width="100"
   height="100"
   sodipodi:docname="testcase.svg"
   inkscape:version="1.4.2 (ebf0e940d0, 2025-05-08)"
   xmlns:inkscape="http://www.inkscape.org/namespaces/inkscape"
   xmlns:sodipodi="http://sodipodi.sourceforge.net/DTD/sodipodi-0.dtd"
   xmlns="http://www.w3.org/2000/svg"
   xmlns:svg="http://www.w3.org/2000/svg">
  <sodipodi:namedview
     id="namedview1"
     pagecolor="#ffffff"
     bordercolor="#000000"
     borderopacity="0.25"
     inkscape:showpageshadow="2"
     inkscape:pageopacity="0.0"
     inkscape:pagecheckerboard="0"
     inkscape:deskcolor="#d1d1d1"
     inkscape:zoom="6.2962963"
     inkscape:cx="54.952941"
     inkscape:cy="63.052941"
     inkscape:window-width="1920"
     inkscape:window-height="1052"
     inkscape:window-x="1920"
     inkscape:window-y="0"
     inkscape:window-maximized="1"
     inkscape:current-layer="svg4" />
  <defs
     id="defs4" />
  <g
     id="icon"
     transform="translate(6.353493 11.566269) scale(1.1566269)">
    <path
     d="m 72.228055,36.927175 h -8.1562 v -1.0156 c 0,-0.85938 -0.70312,-1.5625 -1.5625,-1.5625 h -1.5469 c -0.10938,-2.0938 -1.8438,-3.7812 -3.9688,-3.7812 h -34.781 c -2.125,0 -3.8594,1.6719 -3.9688,3.7812 h -1.75 c -0.85938,0 -1.5625,0.70312 -1.5625,1.5625 v 0.4375 H 1.2283548 c -0.85937994,0 -1.56249994,0.70312 -1.56249994,1.5625 v 0.73438 c 0,8.4844 6.81249994,15.406 15.26600014,15.578 v 0.59375 c 0,0.85938 0.70312,1.5625 1.5625,1.5625 h 2.5938 v 4.2344 h -1.6875 c -0.85938,0 -1.5625,0.70312 -1.5625,1.5625 v 5.25 h -0.29688 c -2.4219,0 -4.3906,1.9688 -4.3906,4.3906 v 3.0781 c 0,0.85938 0.70312,1.5625 1.5625,1.5625 h 13.625 c 0.85938,0 1.5625,-0.70312 1.5625,-1.5625 0,-1.875 1.5312,-3.3906 3.3906,-3.3906 h 6.2656 c 1.875,0 3.3906,1.5312 3.3906,3.3906 0,0.85938 0.70312,1.5625 1.5625,1.5625 h 13.625 c 0.85938,0 1.5625,-0.70312 1.5625,-1.5625 v -3.0781 c 0,-2.4219 -1.9688,-4.3906 -4.3906,-4.3906 h -0.29688 v -5.25 c 0,-0.85938 -0.70312,-1.5625 -1.5625,-1.5625 h -1.6875 v -4.2344 h 3.5781 c 0.71875,0 1.3281,-0.48438 1.5156,-1.1719 l 1.3281,-5.1875 c 0.23438,-0.90625 0.95312,-1.625 1.8594,-1.8594 l 4.875,-1.2656 c 0.6875,-0.1875 1.1719,-0.79688 1.1719,-1.5156 v -0.73438 h 8.1562 c 0.85938,0 1.5625,-0.70312 1.5625,-1.5625 v -4.5938 c 0,-0.85938 -0.70312,-1.5625 -1.5625,-1.5625 z m -50,-3.2344 h 34.781 c 0.40625,0 0.75,0.28125 0.84375,0.65625 h -36.453 c 0.09375,-0.375 0.4375,-0.65625 0.84375,-0.65625 z m -19.4060002,5.7812 H 14.931055 v 11.641 c -6.4531002,-0.17188 -11.6880002,-5.2656 -12.1090002,-11.641 z m 48.6090002,31.078 h 1.8594 c 0.70312,0 1.2656,0.57812 1.2656,1.2656 v 1.5156 h -10.703 c -0.70312,-2.8438 -3.2812,-4.9531 -6.3281,-4.9531 h -6.2656 c -3.0625,0 -5.625,2.1094 -6.3281,4.9531 h -10.703 v -1.5156 c 0,-0.70312 0.57812,-1.2656 1.2656,-1.2656 h 1.8594 c 0.85938,0 1.5625,-0.70312 1.5625,-1.5625 v -5.25 h 30.922 v 5.25 c 0,0.85938 0.70312,1.5625 1.5625,1.5625 z m -4.8125,-9.9375 h -24.406 v -4.2344 h 24.406 z m 14.328,-16.453 -3.7188,0.96875 c -2.0156,0.53125 -3.5781,2.0938 -4.0938,4.1094 l -1.0312,4.0156 h -34.047 v -15.781 h 42.891 z m 9.7188,-2.6562 h -6.5938 v -1.4688 h 6.5938 z"
     id="path1" />
  <path
     d="m 79.806055,18.255175 c -0.78125,-1.5312 -2.1719,-2.7031 -3.8281,-3.1719 l -24.25,-7.0780996 0.89062,-2.3438 0.78125,0.29688 c 0.1875,0.0625 0.375,0.09375 0.54688,0.09375 0.625,0 1.2188,-0.39062 1.4688,-1.0156 l 2.4219,-6.3906 c 0.3125,-0.8125 -0.10938,-1.7031 -0.90625,-2.0156 l -17.281,-6.5312 c -0.8125,-0.2968804 -1.7031,0.09375 -2.0156,0.90625 l -2.4219,6.3906 c -0.14062,0.39062 -0.125,0.8125 0.03125,1.1875 0.17188,0.375 0.48438,0.67188002 0.875,0.81250002 l 0.78125,0.29688 -4.7812,12.64099958 -0.78125,-0.29688 c -0.8125,-0.3125 -1.7031,0.10938 -2.0156,0.90625 l -2.4219,6.3906 c -0.14062,0.39062 -0.125,0.8125 0.03125,1.1875 0.17188,0.375 0.48438,0.67188 0.875,0.8125 l 17.297,6.5312 c 0.17188,0.0625 0.35938,0.09375 0.54688,0.09375 0.21875,0 0.4375,-0.04687 0.64062,-0.14062 0.375,-0.17188 0.67188,-0.48438 0.8125,-0.875 l 2.4219,-6.3906 c 0.3125,-0.8125 -0.10938,-1.7031 -0.90625,-2.0156 l -0.78125,-0.29688 0.89062,-2.3438 22.859,10.734 c 0.84375,0.39062 1.75,0.59375 2.6562,0.59375 0.79688,0 1.6094,-0.15625 2.3594,-0.46875 1.6094,-0.65625 2.875,-1.9844 3.4844,-3.6094 0.59375,-1.6094 0.5,-3.4219 -0.28125,-4.9688 z m -39.812,-24.6719996 14.359,5.43750002 -1.3125,3.46879998 -8.7656,-3.31249998 -4.8125,-1.82810002 -0.78125,-0.29688 z m 4.75,30.8749996 -14.359,-5.4375 1.3125,-3.4688 0.78125,0.29688 5.2969,2 8.2812,3.125 -1.3125,3.4688 z m -9.7031,-10.984 4.7812,-12.64099958 9.8594,3.73439998 -1.4844,3.9219 -1.8125,4.7968996 -1.4844,3.9219 -7.7656,-2.9375 -2.1094,-0.79688 z m 42.109,8.6719 c -0.29688,0.82812 -0.92188,1.4688 -1.7344,1.7969 -0.81252,0.3281 -1.7031,0.3125 -2.5,-0.0625 l -23.078,-10.844 v -0.04687 l 0.79688,-2.0469 24.484,7.1406 c 0.84375,0.25 1.5156,0.8125 1.9062,1.5781 0.3906,0.7656 0.4375,1.6562 0.14062,2.4688 z"
     id="path2" />
  <path
     d="m 3.1030548,23.380175 c -0.60938,0.32812 -0.9375,1 -0.8125,1.6875 0.125,0.67188 0.6875,1.1875 1.375,1.25 l 9.9844002,0.96875 h 0.15625 c 0.79688,0 1.4688,-0.60938 1.5469,-1.4062 0.07813,-0.85938 -0.54688,-1.625 -1.4062,-1.7031 l -4.7656002,-0.46875 3.0781002,-1.6094 c 0.5625,-0.29688 0.89062,-0.90625 0.82812,-1.5312 -0.0625,-0.64062 -0.5,-1.1719 -1.1094,-1.3438 l -2.6250002,-0.78125 1.0469002,0.04687 c 0.59375,0.03125 1.1719,-0.29688 1.4531,-0.82812 0.2812,-0.53124 0.23438,-1.1875 -0.14062,-1.6719 l -0.64062,-0.84375 0.53125,0.3125 c 0.51562,0.29688 1.1562,0.28125 1.6406,-0.04687 0.5,-0.32812 0.76562,-0.90625 0.6875,-1.5 l -0.65625,-5.4218996 4.1719,6.9061996 c 0.34375,0.54688 0.98438,0.84375 1.6094,0.73438 0.64062,-0.10938 1.1406,-0.60938 1.2656,-1.25 l 0.03125,-0.1875 0.85938,2.4688 c 0.28125,0.8125 1.1719,1.25 1.9844,0.96875 0.8125,-0.28125 1.25,-1.1719 0.96875,-1.9844 l -2.7656,-8.0468996 c -0.23438,-0.67188 -0.875,-1.1094 -1.5938,-1.0469 -0.70312,0.04687 -1.2969,0.57812 -1.4219,1.2656 l -0.375,1.9687996 -5.8281,-9.65619958 c -0.375,-0.625 -1.1562,-0.90625 -1.8438,-0.67188 -0.7031202,0.23438 -1.1250002,0.9375 -1.0469002,1.67189998 L 10.462465,11.192705 5.9468648,8.5833054 c -0.64062,-0.375 -1.4531,-0.23438 -1.9531,0.32812 -0.48438,0.5625 -0.51562,1.3905996 -0.07813,1.9687996 l 3.2812,4.3281 -10.547,-0.53125 c -0.8125,-0.0625 -1.4844,0.51562 -1.625,1.2969 -0.1406,0.78128 0.32812,1.5312 1.0938,1.7656 l 11.281,3.3906 -4.3281,2.2656 z"
     id="path3" />
  </g>
</svg>
