<?xml version="1.0" encoding="UTF-8" standalone="no"?>
<svg
   version="1.1"
   viewBox="0 0 64.109779 82.417671"
   id="svg5"
   width="64.109779"
   height="82.417671"
   sodipodi:docname="template.svg"
   inkscape:version="1.4.2 (ebf0e940d0, 2025-05-08)"
   xmlns:inkscape="http://www.inkscape.org/namespaces/inkscape"
   xmlns:sodipodi="http://sodipodi.sourceforge.net/DTD/sodipodi-0.dtd"
   xmlns="http://www.w3.org/2000/svg"
   xmlns:svg="http://www.w3.org/2000/svg">
  <sodipodi:namedview
     id="namedview1"
     pagecolor="#ffffff"
     bordercolor="#000000"
     borderopacity="0.25"
     inkscape:showpageshadow="2"
     inkscape:pageopacity="0.0"
     inkscape:pagecheckerboard="0"
     inkscape:deskcolor="#d1d1d1"
     inkscape:zoom="8.1"
     inkscape:cx="40"
     inkscape:cy="37.777778"
     inkscape:window-width="1920"
     inkscape:window-height="1012"
     inkscape:window-x="0"
     inkscape:window-y="0"
     inkscape:window-maximized="1"
     inkscape:current-layer="svg5" />
  <defs
     id="defs5" />
  <g
     id="icon"
     transform="translate(5.000006,10)">
    <path
       d="m -4.999326,-8.93043 v 80.27 c 0,0.60156 0.48047,1.0781 1.0781,1.0781 h 61.949 c 0.60156,0 1.0781,-0.48047 1.0781,-1.0781 l 0.0039,-70.738 c 0,-0.28906 -0.10938,-0.55859 -0.32031,-0.76172 -0.01953,-0.01953 -0.03125,-0.03125 -10.391,-9.5586 C 48.199244,-9.89844 47.937524,-10 47.667994,-10 h -51.586 c -0.60156,0 -1.082,0.48047 -1.082,1.0703 z m 53.941,2.6406 c 2.1289,1.9492 5.4102,4.9688 7.1602,6.5781 h -7.1602 z m -51.789,-1.5586 h 49.629 v 9.2188 c 0,0.60156 0.48047,1.0781 1.0781,1.0781 h 9.0898 v 67.82 h -59.797 z"
       id="path1" />
    <path
       d="m 26.211674,39.80017 c 0.14844,0 0.30078,-0.03125 0.44141,-0.08984 l 4.4492,-1.9805 c 4.8906,-2.1719 9.7695,-4.3398 14.672,-6.5117 0.39062,-0.17187 0.64062,-0.55078 0.64062,-0.98047 0,-0.42188 -0.23828,-0.80859 -0.62109,-0.98828 l -7.3984,-3.4414 7.3906,-3.2812 c 0.39062,-0.17188 0.64062,-0.55078 0.64062,-0.98047 0,-0.42188 -0.23828,-0.80859 -0.62109,-0.98828 l -7.4102,-3.4414 7.3906,-3.2812 c 0.39062,-0.17188 0.64062,-0.55078 0.64062,-0.98047 0,-0.42188 -0.23828,-0.80859 -0.62109,-0.98828 l -19.121,-8.8789 c -0.28906,-0.12891 -0.60937,-0.12891 -0.89844,-0.01172 l -19.672,8.8789 c -0.39062,0.17969 -0.64062,0.55859 -0.64062,0.98828 0,0.42969 0.26172,0.80859 0.64844,0.98047 l 7.6016,3.2812 -7.6094,3.4414 c -0.39062,0.17969 -0.64062,0.55859 -0.64062,0.98828 0,0.42969 0.26172,0.80859 0.64844,0.98047 2.5391,1.1016 5.0703,2.1914 7.6016,3.2812 l -7.6094,3.4414 c -0.39062,0.17969 -0.64062,0.57031 -0.64062,0.98828 0,0.42969 0.26172,0.80859 0.64844,0.98047 6.5586,2.8203 13.121,5.6602 19.672,8.4883 0.12891,0.07422 0.27734,0.10547 0.41797,0.10547 z m -16.988,-26.961 16.988,-7.6719 16.512,7.6719 -16.512,7.3281 z m -0.01172,8.6914 7.1797,-3.2383 9.3984,4.0508 c 0.14062,0.05859 0.28125,0.08984 0.42969,0.08984 0.14844,0 0.30078,-0.03125 0.44141,-0.08984 l 9.1094,-4.0508 6.9609,3.2383 -7.3906,3.2812 c -3.0391,1.3516 -6.0898,2.6992 -9.1406,4.0508 l -9.4414,-4.0781 -0.69922,-0.30078 c -2.2773,-0.98438 -4.5586,-1.9727 -6.8477,-2.9531 z m 7.1797,5.4414 9.3984,4.0586 c 0.14062,0.05859 0.28125,0.08984 0.42969,0.08984 0.14844,0 0.30078,-0.03125 0.44141,-0.08984 3.0391,-1.3516 6.0781,-2.6992 9.1211,-4.0391 l 6.9492,3.2188 c -4.1719,1.8516 -8.3281,3.6992 -12.5,5.5508 l -4.0195,1.7891 c -5.6602,-2.4492 -11.32,-4.8984 -16.988,-7.3398 z"
       id="path2" />
    <path
       d="m 45.973674,48.51117 h -37.844 c -0.60156,0 -1.0781,0.48047 -1.0781,1.0781 0,0.60156 0.48047,1.0781 1.0781,1.0781 h 37.84 c 0.60156,0 1.0781,-0.48047 1.0781,-1.0781 0.0039,-0.59766 -0.48438,-1.0781 -1.0742,-1.0781 z"
       id="path3" />
    <path
       d="m 45.973674,55.67117 h -37.844 c -0.60156,0 -1.0781,0.48047 -1.0781,1.0781 0,0.60156 0.48047,1.0781 1.0781,1.0781 h 37.84 c 0.60156,0 1.0781,-0.48047 1.0781,-1.0781 0.0039,-0.59766 -0.48438,-1.0781 -1.0742,-1.0781 z"
       id="path4" />
  </g>
</svg>
