<?xml version="1.0" encoding="UTF-8" standalone="no"?>
<svg
   version="1.1"
   viewBox="-5 -10 94.121208 90.179802"
   id="svg2"
   width="94.121208"
   height="90.179802"
   xmlns="http://www.w3.org/2000/svg"
   xmlns:svg="http://www.w3.org/2000/svg">
  <defs
     id="defs2" />
  <path
     d="M 1.4609,-10 C -2.0938,-10 -5,-7.0938 -5,-3.5391 v 77.258 c 0,3.5547 2.9062,6.4609 6.4609,6.4609 h 57.961 c 3.5547,0 6.4609,-2.9062 6.4609,-6.4609 V 57.8709 H 65.8789 C 65.875,57.06231 65.22265,56.41 64.4141,56.4061 c -0.39062,0 -0.76562,0.15234 -1.043,0.42578 -0.27734,0.27734 -0.43359,0.64844 -0.43359,1.0391 v 15.848 c 0,1.9727 -1.543,3.5156 -3.5195,3.5156 h -57.957 c -1.9766,0 -3.5156,-1.543 -3.5156,-3.5156 v -77.258 c 0,-1.9727 1.5391,-3.5195 3.5156,-3.5195 h 57.961 c 1.9766,0 3.5195,1.5469 3.5195,3.5195 v 15.848 h -0.0039 c 0,0.39062 0.15625,0.76172 0.43359,1.0391 0.27734,0.27344 0.65234,0.42578 1.043,0.42578 0.80859,-0.0039 1.4609,-0.65625 1.4648,-1.4648 v -15.848 c 0,-3.5547 -2.9062,-6.4609 -6.4609,-6.4609 z m 8.293,15.836 c -0.39062,0 -0.76562,0.15234 -1.043,0.42969 -0.27734,0.27344 -0.43359,0.64844 -0.43359,1.0391 v 11.039 c 0,0.39062 0.15625,0.76562 0.43359,1.0391 0.27734,0.27734 0.65234,0.42969 1.043,0.42969 h 11.031 c 0.39063,0 0.76563,-0.15234 1.043,-0.42969 0.27734,-0.27344 0.42969,-0.64844 0.43359,-1.0391 V 7.30479 C 22.25759,6.91417 22.10524,6.53917 21.8279,6.26569 21.55056,5.98835 21.17556,5.836 20.7849,5.836 Z m 1.4648,2.9453 h 8.0977 v 8.0859 h -8.0977 z m 17.836,2.5703 c -0.39062,0 -0.76172,0.15625 -1.0391,0.43359 -0.27344,0.27734 -0.42969,0.65234 -0.42578,1.043 0,0.80859 0.65625,1.4648 1.4648,1.4688 h 22.07 c 0.39062,0 0.76562,-0.15234 1.043,-0.42969 0.27344,-0.27344 0.42969,-0.64844 0.43359,-1.0391 0,-0.39062 -0.15625,-0.76953 -0.43359,-1.0469 -0.27734,-0.27737 -0.65234,-0.42969 -1.043,-0.42969 z m 29.477,4.3789 c -4.9609,0 -9.918,1.8906 -13.695,5.6641 -7.5508,7.5508 -7.5586,19.844 -0.0039,27.395 6.4766,6.4766 16.445,7.3906 23.914,2.75 l 2.6602,2.6602 -0.31641,0.3125 v 0.0039 c -0.27734,0.27734 -0.43359,0.65234 -0.43359,1.043 0,0.39066 0.15625,0.76562 0.43359,1.043 l 7.1992,7.1953 c 2.457,2.457 6.4727,2.5273 8.9141,0.08984 l 0.11719,-0.12109 c 2.4414,-2.4414 2.3828,-6.4531 -0.07422,-8.9141 l -7.2109,-7.1992 v 0.0039 c -0.57422,-0.57031 -1.5,-0.57031 -2.0742,0 l -0.32031,0.32031 -2.6562,-2.6641 c 4.6406,-7.4688 3.7227,-17.434 -2.7578,-23.914 -3.7773,-3.7734 -8.7344,-5.6641 -13.695,-5.6641 z m -0.0039,2.918 c 4.2031,0 8.4062,1.6133 11.617,4.8242 5.7461,5.7422 6.3516,14.641 1.8281,21.055 l 0.0039,0.0039 c -0.07031,0.07813 -0.13281,0.16406 -0.18359,0.25781 -0.49219,0.66797 -1.0391,1.3086 -1.6445,1.9141 -0.62109,0.62109 -1.2734,1.1797 -1.9609,1.6797 h -0.0039 c -0.07031,0.04297 -0.14062,0.09375 -0.20703,0.14844 -6.4141,4.5273 -15.324,3.9258 -21.066,-1.8203 -6.4258,-6.4258 -6.4258,-16.816 0,-23.242 3.2148,-3.2148 7.4141,-4.8203 11.617,-4.8164 z m -48.773,9.4531 c -0.39062,0 -0.76562,0.15234 -1.043,0.42969 -0.27734,0.27344 -0.43359,0.64844 -0.43359,1.0391 v 11.039 c 0,0.39062 0.15625,0.76562 0.43359,1.0391 0.27734,0.27734 0.65234,0.42969 1.043,0.42969 h 11.031 c 0.39063,0 0.76563,-0.15234 1.043,-0.42969 0.27734,-0.27344 0.42969,-0.64844 0.43359,-1.0391 v -11.039 c -0.0039,-0.39062 -0.16016,-0.76562 -0.43359,-1.0391 -0.27734,-0.27734 -0.65234,-0.42969 -1.043,-0.42969 z m 55.699,0.95703 c -0.39062,0 -0.76562,0.15625 -1.0391,0.43359 l -8.0664,8.0664 -3.7109,-3.7109 h -0.0039 c -0.27344,-0.27734 -0.64844,-0.43359 -1.0391,-0.43359 -0.39453,0 -0.76953,0.15625 -1.043,0.43359 -0.27734,0.27734 -0.43359,0.64844 -0.43359,1.0391 0,0.39453 0.15625,0.76562 0.43359,1.043 l 4.7578,4.7578 h -0.0039 c 0.27734,0.27344 0.65234,0.42969 1.043,0.42969 0.39063,0 0.76563,-0.15625 1.0391,-0.42969 l 9.1094,-9.1094 c 0.27734,-0.27734 0.43359,-0.65234 0.43359,-1.043 0,-0.39062 -0.15625,-0.76562 -0.43359,-1.043 -0.27734,-0.27738 -0.65234,-0.43359 -1.043,-0.43359 z m -54.234,1.9883 h 8.0977 v 8.0859 h -8.0977 z m 17.836,2.5703 c -0.39062,0 -0.76172,0.15625 -1.0391,0.43359 -0.27344,0.27734 -0.42969,0.65234 -0.42578,1.043 0,0.80859 0.65625,1.4648 1.4648,1.4688 h 5.6875 c 0.39062,0 0.76562,-0.15234 1.043,-0.42969 0.27734,-0.27344 0.43359,-0.64844 0.43359,-1.0391 0.0039,-0.39062 -0.15234,-0.76953 -0.42969,-1.0469 -0.27734,-0.27734 -0.65234,-0.42969 -1.0469,-0.42969 z m 44.164,14.098 2.3398,2.3398 -2.0742,2.0703 -2.3398,-2.3398 c 0.37109,-0.31641 0.73047,-0.65234 1.0781,-1.0039 0.34766,-0.34766 0.67969,-0.70312 0.99219,-1.0703 z m -63.465,2.6523 c -0.8125,0 -1.4727,0.65625 -1.4766,1.4648 v 11.043 c 0.0039,0.8125 0.66406,1.4688 1.4766,1.4648 h 11.031 c 0.8125,0.0039 1.4727,-0.65234 1.4766,-1.4648 v -11.043 c -0.0039,-0.80859 -0.66406,-1.4648 -1.4766,-1.4648 z m 69.234,0.40234 6.168,6.168 c 1.3633,1.3633 1.375,3.4648 0.08594,4.7539 l -0.11719,0.10938 c -1.2891,1.2891 -3.3945,1.2852 -4.7578,-0.07813 l -6.1641,-6.1641 0.25391,-0.25391 h 0.0039 c 0.02344,-0.01953 0.04687,-0.04297 0.07031,-0.0625 l 4.1484,-4.1562 h -0.0039 c 0.01953,-0.01953 0.03516,-0.03516 0.05469,-0.05469 z m -67.77,2.5391 h 8.0977 v 8.0898 h -8.0977 z m 17.836,2.5742 c -0.80859,0.0039 -1.4648,0.65625 -1.4648,1.4648 -0.0039,0.39063 0.15234,0.76563 0.42578,1.043 0.27734,0.27734 0.64844,0.43359 1.0391,0.43359 h 22.07 c 0.39062,0 0.76562,-0.15234 1.043,-0.42969 0.27734,-0.27734 0.43359,-0.65234 0.43359,-1.0469 -0.0039,-0.39062 -0.16016,-0.76172 -0.4375,-1.0391 -0.27734,-0.27344 -0.64844,-0.42578 -1.0391,-0.42578 z"
     id="path1"
     style="fill:#000000;fill-opacity:1;stroke:#000000;stroke-width:2;stroke-linecap:round;stroke-linejoin:round" />
</svg>
