<?xml version="1.0" encoding="UTF-8" standalone="no"?>
<svg
   version="1.1"
   viewBox="-5 -10 91.063843 91.063744"
   id="svg2"
   sodipodi:docname="train.svg"
   width="91.063843"
   height="91.063744"
   inkscape:version="1.4.2 (ebf0e940d0, 2025-05-08)"
   xmlns:inkscape="http://www.inkscape.org/namespaces/inkscape"
   xmlns:sodipodi="http://sodipodi.sourceforge.net/DTD/sodipodi-0.dtd"
   xmlns="http://www.w3.org/2000/svg"
   xmlns:svg="http://www.w3.org/2000/svg">
  <defs
     id="defs2" />
  <sodipodi:namedview
     id="namedview2"
     pagecolor="#ffffff"
     bordercolor="#000000"
     borderopacity="0.25"
     inkscape:showpageshadow="2"
     inkscape:pageopacity="0.0"
     inkscape:pagecheckerboard="0"
     inkscape:deskcolor="#d1d1d1"
     inkscape:zoom="6"
     inkscape:cx="-13.75"
     inkscape:cy="53"
     inkscape:window-width="1920"
     inkscape:window-height="1012"
     inkscape:window-x="0"
     inkscape:window-y="0"
     inkscape:window-maximized="1"
     inkscape:current-layer="svg2" />
  <path
     d="M 38.125,-5.1862537 C 14.309,-5.1862537 -5,14.122746 -5,37.938746 c 0,23.816 19.309,43.125 43.125,43.125 23.816,0 43.125,-19.309 43.125,-43.125 0,-9.6797 -3.1875,-18.609 -8.5703,-25.809 l -2.918,-0.53125 -6.5391,6.5391 c 4.3008,5.4453 6.8711,12.324 6.8711,19.801 0,17.656 -14.312,31.969 -31.969,31.969 -17.657,0 -31.969,-14.312 -31.969,-31.969 0,-17.657 14.312,-31.9689997 31.969,-31.9689997 7.4766,0 14.355,2.5664 19.801,6.8710997 l 6.5391,-6.5390997 -0.53125,-2.918 c -7.1992,-5.3828 -16.133,-8.5703 -25.809,-8.5703 z m 0,40.5079997 L 66.508,6.9387463 65.34,0.51684629 c -0.11328,-0.61719 0.07031,-1.1953 0.51172,-1.63669999 l 8.6055,-8.6055 c 0.25,-0.25 0.59375,-0.3359403 0.92969,-0.23047 0.33594,0.10547 0.57031,0.37109 0.63281,0.71875 l 1.0234,5.6406 c 0.72266,-0.72266 1.8945,-0.72266 2.6172,0 0.7227,0.72266 0.72266,1.8945 0,2.61719999 l 5.6406,1.0234 c 0.34766,0.0625 0.61328,0.29688 0.71875,0.63281 0.10547,0.33594001 0.01953,0.67969001 -0.23047,0.92969001 l -8.6055,8.6054997 c -0.44141,0.44141 -1.0234,0.625 -1.6367,0.51172 L 69.1251,9.5558463 40.7421,37.938846 c -0.72266,0.72266 -1.8945,0.72266 -2.6172,0 -0.7227,-0.72266 -0.72266,-1.8945 0,-2.6172 z m 0,-18.195 c 4.3945,0 8.4688,1.3633 11.828,3.6875 l -8.1836,8.1836 c -1.125,-0.45703 -2.3555,-0.71094 -3.6445,-0.71094 -5.332,0 -9.6562,4.3242 -9.6562,9.6562 0,5.332 4.3242,9.6562 9.6562,9.6562 5.332,0 9.6562,-4.3242 9.6562,-9.6562 0,-1.2891 -0.25391,-2.5195 -0.71094,-3.6445 l 8.1836,-8.1836 c 2.3242,3.3594 3.6875,7.4336 3.6875,11.828 0,11.492 -9.3164,20.812 -20.812,20.812 -11.492,0 -20.812,-9.3164 -20.812,-20.812 -0.0039,-11.496 9.3125,-20.816 20.809,-20.816 z"
     fill-rule="evenodd"
     id="path1" />
</svg>
