<?xml version="1.0" encoding="UTF-8" standalone="no"?>
<svg
   data-name="Layer 15"
   viewBox="-5 -10 65 85.000099"
   x="0px"
   y="0px"
   version="1.1"
   id="svg5"
   sodipodi:docname="trash.svg"
   width="65"
   height="85.000099"
   inkscape:export-filename="noun-trash-4665730.svg"
   inkscape:export-xdpi="96"
   inkscape:export-ydpi="96"
   inkscape:version="1.4.2 (ebf0e940d0, 2025-05-08)"
   xmlns:inkscape="http://www.inkscape.org/namespaces/inkscape"
   xmlns:sodipodi="http://sodipodi.sourceforge.net/DTD/sodipodi-0.dtd"
   xmlns="http://www.w3.org/2000/svg"
   xmlns:svg="http://www.w3.org/2000/svg">
  <defs
     id="defs5" />
  <sodipodi:namedview
     id="namedview5"
     pagecolor="#ffffff"
     bordercolor="#000000"
     borderopacity="0.25"
     inkscape:showpageshadow="2"
     inkscape:pageopacity="0.0"
     inkscape:pagecheckerboard="0"
     inkscape:deskcolor="#d1d1d1"
     inkscape:zoom="6"
     inkscape:cx="32.5"
     inkscape:cy="53.833333"
     inkscape:window-width="1920"
     inkscape:window-height="1012"
     inkscape:window-x="0"
     inkscape:window-y="0"
     inkscape:window-maximized="1"
     inkscape:current-layer="svg5" />
  <path
     d="M 38.44,-10 H 16.56 A 6.56,6.56 0 0 0 10,-3.44 V 0 H 1.09 A 6.09,6.09 0 0 0 -5,6.09 v 7.82 a 6.09,6.09 0 0 0 5.06,6 l 1.26,46 A 9.34,9.34 0 0 0 10.7,75 h 33.6 a 9.34,9.34 0 0 0 9.38,-9.13 l 1.26,-46 a 6.09,6.09 0 0 0 5.06,-6 V 6.09 A 6.09,6.09 0 0 0 53.91,0 H 45 V -3.44 A 6.56,6.56 0 0 0 38.44,-10 Z M 15,-3.44 A 1.56,1.56 0 0 1 16.56,-5 H 38.44 A 1.56,1.56 0 0 1 40,-3.44 V 0 H 15 Z M 48.68,65.74 A 4.35,4.35 0 0 1 44.3,70 H 10.7 A 4.35,4.35 0 0 1 6.32,65.74 L 5.07,20 H 49.93 Z M 53.91,5 A 1.09,1.09 0 0 1 55,6.09 v 7.82 A 1.09,1.09 0 0 1 53.91,15 H 1.09 A 1.09,1.09 0 0 1 0,13.91 V 6.09 A 1.09,1.09 0 0 1 1.09,5 Z"
     id="path1" />
  <path
     d="m 39.57,61.21 a 2.5,2.5 0 0 0 2.5,-2.5 v -29 a 2.5,2.5 0 1 0 -5,0 v 29 a 2.5,2.5 0 0 0 2.5,2.5 z"
     id="path2" />
  <path
     d="m 27.5,61.21 a 2.5,2.5 0 0 0 2.5,-2.5 v -29 a 2.5,2.5 0 0 0 -5,0 v 29 a 2.5,2.5 0 0 0 2.5,2.5 z"
     id="path3" />
  <path
     d="m 15.43,61.21 a 2.5,2.5 0 0 0 2.5,-2.5 v -29 a 2.5,2.5 0 0 0 -5,0 v 29 a 2.5,2.5 0 0 0 2.5,2.5 z"
     id="path4" />
</svg>
